<?xml version="1.0" encoding="UTF-8"?>
<svg width="97px" height="33px" viewBox="0 0 97 33" version="1.1" xmlns="http://www.w3.org/2000/svg" xmlns:xlink="http://www.w3.org/1999/xlink">
    <!-- Generator: Sketch 51.2 (57519) - http://www.bohemiancoding.com/sketch -->
    <title>LOGO</title>
    <desc>Created with Sketch.</desc>
    <defs>
        <polygon id="path-1" points="0.246357955 0.646 4.40964205 0.646 4.40964205 5.34315484 0.246357955 5.34315484"></polygon>
        <polygon id="path-3" points="0.0839931818 0.646 3.83370455 0.646 3.83370455 5.34348387 0.0839931818 5.34348387"></polygon>
        <polygon id="path-5" points="0 33.3537806 96.4246136 33.3537806 96.4246136 1.09655484 0 1.09655484"></polygon>
    </defs>
    <g id="Page-1" stroke="none" stroke-width="1" fill="none" fill-rule="evenodd">
        <g id="首页待处理" transform="translate(-360.000000, -12.000000)">
            <g id="Group-20">
                <g id="Group-19" transform="translate(358.000000, 10.000000)">
                    <g id="LOGO" transform="translate(2.000000, 1.000000)">
                        <path d="M71.5885352,3.43707097 C71.3096602,3.55003871 70.8930011,3.64545806 70.3374557,3.72442581 C70.023308,3.76939355 69.8006489,3.82094194 69.6705807,3.87687742 C69.5405125,3.93390968 69.4391034,4.01616774 69.3674557,4.12474839 C69.2980125,4.23332903 69.2627398,4.35397419 69.2627398,4.48668387 C69.2627398,4.6895871 69.3387966,4.85849032 69.494217,4.99339355 C69.647433,5.12939355 69.8745011,5.19739355 70.1721148,5.19739355 C70.4664216,5.19739355 70.7298648,5.13268387 70.9591375,5.00436129 C71.1884102,4.87603871 71.357058,4.70055484 71.4650807,4.47790968 C71.5466489,4.30571613 71.5885352,4.05236129 71.5885352,3.71565161 L71.5885352,3.43707097 Z M71.652467,5.13816774 C71.3680807,5.37836129 71.0958193,5.54726452 70.8323761,5.64597419 C70.5711375,5.74468387 70.2889557,5.79403871 69.9891375,5.79403871 C69.4931148,5.79403871 69.1117284,5.67339355 68.8449784,5.43210323 C68.5793307,5.1908129 68.4448534,4.88261935 68.4448534,4.50752258 C68.4448534,4.28707097 68.495558,4.08636129 68.5958648,3.90429677 C68.6972739,3.72223226 68.8284443,3.57636129 68.992683,3.46668387 C69.154717,3.35590968 69.3387966,3.27365161 69.542717,3.21661935 C69.6926261,3.17713548 69.9196943,3.13984516 70.2228193,3.10255484 C70.8411943,3.02907097 71.2953307,2.94132903 71.5885352,2.84042581 C71.5907398,2.73623226 71.5929443,2.66932903 71.5929443,2.6408129 C71.5929443,2.33152258 71.5201943,2.11216774 71.3757966,1.98494194 C71.179592,1.81384516 70.888592,1.7272 70.5038989,1.7272 C70.1434557,1.7272 69.877808,1.7908129 69.7058534,1.91584516 C69.5350011,2.04197419 69.4071375,2.26352258 69.3255693,2.58268387 L68.5782284,2.48068387 C68.645467,2.16152258 68.7578989,1.90487742 68.9133193,1.70855484 C69.0687398,1.51223226 69.2947057,1.36087742 69.5901148,1.2555871 C69.8844216,1.15029677 70.2261261,1.09655484 70.6141261,1.09655484 C70.9999216,1.09655484 71.312967,1.14261935 71.5543648,1.23255484 C71.7946602,1.32249032 71.9721261,1.43655484 72.0856602,1.57255484 C72.1991943,1.70965161 72.278558,1.88294194 72.3237511,2.09132903 C72.3491034,2.22074839 72.3623307,2.45545806 72.3623307,2.79436129 L72.3623307,3.80887742 C72.3623307,4.51739355 72.3788648,4.96487742 72.4108307,5.15242581 C72.4427966,5.33997419 72.5078307,5.51984516 72.6048307,5.69203871 L71.8045807,5.69203871 C71.725217,5.53410323 71.6745125,5.34984516 71.652467,5.13816774 Z" id="Fill-1" fill="#FEFEFE"></path>
                        <path d="M76.8006318,4.046 L77.5534841,4.1436129 C77.4708136,4.66019355 77.2602795,5.06380645 76.9207795,5.35554839 C76.5834841,5.64729032 76.166825,5.79425806 75.6741091,5.79425806 C75.0557341,5.79425806 74.5586091,5.59245161 74.1827341,5.19103226 C73.8068591,4.78851613 73.6194727,4.21270968 73.6194727,3.46251613 C73.6194727,2.97664516 73.6999386,2.55219355 73.8619727,2.18916129 C74.0229045,1.82503226 74.2698136,1.55193548 74.5993932,1.36987097 C74.930075,1.18780645 75.2894159,1.09677419 75.6774159,1.09677419 C76.1690295,1.09677419 76.5691545,1.22070968 76.8810977,1.46748387 C77.1930409,1.71425806 77.3925523,2.06412903 77.4807341,2.51819355 L76.7367,2.63225806 C76.6661545,2.33174194 76.5404955,2.1036129 76.360825,1.95116129 C76.1811545,1.79980645 75.9629045,1.72303226 75.7082795,1.72303226 C75.3213818,1.72303226 75.0083364,1.86012903 74.7669386,2.13541935 C74.5266432,2.41070968 74.4064955,2.84612903 74.4064955,3.44167742 C74.4064955,4.04490323 74.5233364,4.4836129 74.7559159,4.75670968 C74.9873932,5.03090323 75.2905182,5.16690323 75.6652909,5.16690323 C75.9651091,5.16690323 76.2164273,5.07587097 76.4170409,4.89270968 C76.6187568,4.70845161 76.7466205,4.42767742 76.8006318,4.046" id="Fill-3" fill="#FEFEFE"></path>
                        <path d="M81.4594977,4.046 L82.2134523,4.1436129 C82.1296795,4.66019355 81.9202477,5.06380645 81.5807477,5.35554839 C81.24235,5.64729032 80.8267932,5.79425806 80.332975,5.79425806 C79.7146,5.79425806 79.2185773,5.59245161 78.8427023,5.19103226 C78.4668273,4.78851613 78.2783386,4.21270968 78.2783386,3.46251613 C78.2783386,2.97664516 78.3588045,2.55219355 78.5208386,2.18916129 C78.6828727,1.82503226 78.9286795,1.55193548 79.2593614,1.36987097 C79.5900432,1.18780645 79.9493841,1.09677419 80.3362818,1.09677419 C80.8278955,1.09677419 81.2291227,1.22070968 81.5399636,1.46748387 C81.8519068,1.71425806 82.0525205,2.06412903 82.1396,2.51819355 L81.3955659,2.63225806 C81.3250205,2.33174194 81.2004636,2.1036129 81.0196909,1.95116129 C80.8400205,1.79980645 80.6217705,1.72303226 80.3671455,1.72303226 C79.98135,1.72303226 79.6683045,1.86012903 79.4269068,2.13541935 C79.1855091,2.41070968 79.0653614,2.84612903 79.0653614,3.44167742 C79.0653614,4.04490323 79.1822023,4.4836129 79.4147818,4.75670968 C79.6462591,5.03090323 79.9504864,5.16690323 80.3252591,5.16690323 C80.6250773,5.16690323 80.8763955,5.07587097 81.0770091,4.89270968 C81.278725,4.70845161 81.4054864,4.42767742 81.4594977,4.046" id="Fill-5" fill="#FEFEFE"></path>
                        <g id="Group-9" transform="translate(82.670455, 0.450555)">
                            <mask id="mask-2" fill="white">
                                <use xlink:href="#path-1"></use>
                            </mask>
                            <g id="Clip-8"></g>
                            <path d="M1.07967614,2.56283226 L3.60167614,2.56283226 C3.56750568,2.18554194 3.47160795,1.90147742 3.31177841,1.71283226 C3.06927841,1.41999355 2.75292614,1.27302581 2.36382386,1.27302581 C2.01330114,1.27302581 1.71678977,1.38928387 1.47759659,1.62399355 C1.23840341,1.85760645 1.10502841,2.17128387 1.07967614,2.56283226 M3.59285795,3.79450968 L4.38428977,3.89102581 C4.25973295,4.35167097 4.02825568,4.70812258 3.69096023,4.96257419 C3.35366477,5.21592903 2.92267614,5.34315484 2.39799432,5.34315484 C1.73773295,5.34315484 1.21415341,5.14134839 0.827255682,4.73554194 C0.440357955,4.33083226 0.246357955,3.7638 0.246357955,3.03334839 C0.246357955,2.27657419 0.4425625,1.6898 0.832767045,1.27302581 C1.22517614,0.855154839 1.73222159,0.645670968 2.35610795,0.645670968 C2.96015341,0.645670968 3.45286932,0.850767742 3.83535795,1.25986452 C4.21894886,1.66896129 4.40964205,2.24367097 4.40964205,2.9861871 C4.40964205,3.03115484 4.40853977,3.09915484 4.40633523,3.18909032 L1.03778977,3.18909032 C1.06534659,3.68263871 1.2064375,4.06102581 1.45885795,4.32315484 C1.71017614,4.58528387 2.02542614,4.71689677 2.40240341,4.71689677 C2.68348295,4.71689677 2.92267614,4.6434129 3.1221875,4.49644516 C3.31949432,4.35057419 3.47711932,4.11586452 3.59285795,3.79450968" id="Fill-7" fill="#FEFEFE" mask="url(#mask-2)"></path>
                        </g>
                        <path d="M88.0149341,4.35068387 L88.7721955,4.23223226 C88.8140818,4.53384516 88.932025,4.76526452 89.1271273,4.92649032 C89.3211273,5.08661935 89.5922864,5.16778065 89.9406045,5.16778065 C90.2922295,5.16778065 90.5534682,5.09649032 90.7232182,4.95390968 C90.8929682,4.81132903 90.9778432,4.64461935 90.9778432,4.45268387 C90.9778432,4.28049032 90.9028886,4.1455871 90.7529795,4.04578065 C90.6482636,3.97887742 90.387025,3.89223226 89.9703659,3.78803871 C89.4093091,3.64655484 89.0202068,3.5248129 88.8030591,3.42171613 C88.5870136,3.31971613 88.4216727,3.17713548 88.3103432,2.99507097 C88.1979114,2.81300645 88.1416955,2.61229677 88.1416955,2.39184516 C88.1416955,2.19113548 88.1879909,2.00578065 88.2805818,1.83578065 C88.3720705,1.66468387 88.4977295,1.5232 88.6564568,1.41023226 C88.7755023,1.32249032 88.9386386,1.24790968 89.1436614,1.1875871 C89.3486841,1.12726452 89.5691386,1.09655484 89.805025,1.09655484 C90.1588545,1.09655484 90.4707977,1.14810323 90.73865,1.24900645 C91.0065023,1.35100645 91.2049114,1.48810323 91.3316727,1.66139355 C91.4595364,1.83578065 91.5466159,2.0672 91.5951159,2.35784516 L90.8466727,2.45874839 C90.8125023,2.22842581 90.7144,2.04745806 90.5512636,1.91803871 C90.3881273,1.78861935 90.1577523,1.7228129 89.8601386,1.7228129 C89.5085136,1.7228129 89.2582977,1.78094194 89.1072864,1.8972 C88.956275,2.01236129 88.8824227,2.14726452 88.8824227,2.30300645 C88.8824227,2.40171613 88.9132864,2.49055484 88.9750136,2.56952258 C89.0378432,2.65178065 89.1359455,2.71868387 89.2693205,2.77242581 C89.3453773,2.80094194 89.5713432,2.86565161 89.9450136,2.96765161 C90.4862295,3.11132903 90.8643091,3.22868387 91.07815,3.3208129 C91.2930932,3.41294194 91.4606386,3.54565161 91.5818886,3.72003871 C91.7042409,3.89552258 91.7648659,4.11268387 91.7648659,4.37261935 C91.7648659,4.62597419 91.6910136,4.86507097 91.5422068,5.0888129 C91.3922977,5.31365161 91.1784568,5.48694194 90.8973773,5.60978065 C90.6162977,5.73261935 90.2988432,5.79403871 89.9450136,5.79403871 C89.3586045,5.79403871 88.9110818,5.67229677 88.6035477,5.42990968 C88.2960136,5.18752258 88.0998091,4.82778065 88.0149341,4.35068387" id="Fill-10" fill="#FEFEFE"></path>
                        <g id="Group-14" transform="translate(92.590909, 0.450555)">
                            <mask id="mask-4" fill="white">
                                <use xlink:href="#path-3"></use>
                            </mask>
                            <g id="Clip-13"></g>
                            <path d="M0.0839931818,3.90012903 L0.841254545,3.78167742 C0.883140909,4.08329032 1.00108409,4.31470968 1.19618636,4.47593548 C1.39018636,4.63606452 1.66134545,4.71722581 2.00966364,4.71722581 C2.36128864,4.71722581 2.62252727,4.64593548 2.79227727,4.50335484 C2.96202727,4.36077419 3.04690227,4.19406452 3.04690227,4.00212903 C3.04690227,3.82993548 2.97194773,3.69503226 2.82203864,3.59522581 C2.71732273,3.52832258 2.45608409,3.44167742 2.039425,3.33748387 C1.47836818,3.196 1.08926591,3.07425806 0.872118182,2.97116129 C0.656072727,2.86916129 0.490731818,2.72658065 0.379402273,2.54451613 C0.266970455,2.36245161 0.210754545,2.16174194 0.210754545,1.94129032 C0.210754545,1.74058065 0.25705,1.55522581 0.349640909,1.38522581 C0.441129545,1.21412903 0.566788636,1.07264516 0.725515909,0.959677419 C0.844561364,0.871935484 1.00769773,0.797354839 1.21272045,0.737032258 C1.41774318,0.676709677 1.63819773,0.646 1.87408409,0.646 C2.22791364,0.646 2.53985682,0.697548387 2.80770909,0.798451613 C3.07556136,0.900451613 3.27397045,1.03754839 3.40073182,1.21083871 C3.52859545,1.38522581 3.615675,1.61664516 3.664175,1.90729032 L2.91573182,2.00819355 C2.88156136,1.77787097 2.78345909,1.59690323 2.62032273,1.46748387 C2.45718636,1.33806452 2.22681136,1.27225806 1.92919773,1.27225806 C1.57757273,1.27225806 1.32735682,1.3303871 1.17634545,1.44664516 C1.02533409,1.56180645 0.951481818,1.69670968 0.951481818,1.85245161 C0.951481818,1.95116129 0.982345455,2.04 1.04407273,2.11896774 C1.10690227,2.20122581 1.20500455,2.26812903 1.33837955,2.32187097 C1.41443636,2.3503871 1.64040227,2.41509677 2.01407273,2.51709677 C2.55528864,2.66077419 2.93336818,2.77812903 3.14720909,2.87025806 C3.36215227,2.9623871 3.52969773,3.09509677 3.65094773,3.26948387 C3.7733,3.44496774 3.833925,3.66212903 3.833925,3.92206452 C3.833925,4.17541935 3.76007273,4.41451613 3.61126591,4.63825806 C3.46135682,4.86309677 3.24751591,5.0363871 2.96643636,5.15922581 C2.68535682,5.28206452 2.36790227,5.34348387 2.01407273,5.34348387 C1.42766364,5.34348387 0.980140909,5.22174194 0.672606818,4.97935484 C0.365072727,4.73696774 0.168868182,4.37722581 0.0839931818,3.90012903" id="Fill-12" fill="#FEFEFE" mask="url(#mask-4)"></path>
                        </g>
                        <path d="M55.8068557,31.3507419 L56.6556057,31.2180323 C56.7019011,31.5558387 56.8352761,31.8146774 57.0524239,31.9945484 C57.2695716,32.1744194 57.5737989,32.2654516 57.9640034,32.2654516 C58.3575148,32.2654516 58.649617,32.1853871 58.8403102,32.0252581 C59.0310034,31.8662258 59.1257989,31.6797742 59.1257989,31.4648065 C59.1257989,31.2717742 59.0420261,31.1204194 58.8733784,31.0085484 C58.7565375,30.9339677 58.4644352,30.8374516 57.9970716,30.7200968 C57.3687761,30.5621613 56.9333784,30.4261613 56.6908784,30.311 C56.4472761,30.1947419 56.2631966,30.0357097 56.1386398,29.8317097 C56.0129807,29.6288065 55.9501511,29.4039677 55.9501511,29.1571935 C55.9501511,28.9323548 56.001958,28.7250645 56.1055716,28.5342258 C56.208083,28.3433871 56.3480716,28.1843548 56.5255375,28.0582258 C56.6589125,27.9595161 56.8407875,27.8772581 57.0711625,27.8092581 C57.3015375,27.7412581 57.5484466,27.7072581 57.8118898,27.7072581 C58.208708,27.7072581 58.5570261,27.7631935 58.8579466,27.8772581 C59.1566625,27.9913226 59.3782193,28.144871 59.5215148,28.3400968 C59.663708,28.5342258 59.7629125,28.7941613 59.8169239,29.1188065 L58.9780943,29.232871 C58.940617,28.9740323 58.8292875,28.771129 58.6474125,28.6263548 C58.4644352,28.4815806 58.2076057,28.4080968 57.873617,28.4080968 C57.4801057,28.4080968 57.1990261,28.4728065 57.0303784,28.6022258 C56.862833,28.7316452 56.7790602,28.8840968 56.7790602,29.0573871 C56.7790602,29.1681613 56.8132307,29.2679677 56.8837761,29.3568065 C56.9532193,29.4478387 57.0634466,29.5235161 57.2111511,29.5838387 C57.2982307,29.6145484 57.5495489,29.6869355 57.9695148,29.801 C58.5757648,29.9622258 58.9990375,30.0938387 59.2371284,30.1969355 C59.4774239,30.3000323 59.6659125,30.4491935 59.8025943,30.6444194 C59.9381739,30.8407419 60.007617,31.0842258 60.007617,31.3737742 C60.007617,31.6578387 59.922742,31.9254516 59.7574011,32.1777097 C59.590958,32.4277742 59.3495602,32.6219032 59.0354125,32.7600968 C58.722367,32.8971935 58.3652307,32.9662903 57.9695148,32.9662903 C57.311458,32.9662903 56.8110261,32.8302903 56.467117,32.5593871 C56.1221057,32.2873871 55.9027534,31.8837742 55.8068557,31.3507419" id="Fill-15" fill="#FEFEFE"></path>
                        <path d="M61.9285477,30.3364452 C61.9285477,30.9813484 62.0707409,31.4628323 62.3529227,31.7841871 C62.6351045,32.1044452 62.9911386,32.265671 63.4199227,32.265671 C63.8442977,32.265671 64.1992295,32.1033484 64.4803091,31.7808968 C64.7635932,31.4595419 64.9046841,30.9681871 64.9046841,30.3090258 C64.9046841,29.6860581 64.7624909,29.2155419 64.4781045,28.8941871 C64.1948205,28.573929 63.8409909,28.4127032 63.4199227,28.4127032 C62.9911386,28.4127032 62.6351045,28.5728323 62.3529227,28.8919935 C62.0707409,29.2111548 61.9285477,29.6926387 61.9285477,30.3364452 M61.0478318,30.3364452 C61.0478318,29.4041871 61.3090705,28.7143161 61.8282409,28.2657355 C62.2636386,27.8928323 62.7938318,27.7074774 63.4199227,27.7074774 C64.1143545,27.7074774 64.682025,27.9345097 65.1229341,28.3874774 C65.5649455,28.8404452 65.7854,29.4667032 65.7854,30.2662516 C65.7854,30.9122516 65.6884,31.4222516 65.4921955,31.7929613 C65.2981955,32.1647677 65.0138091,32.4532194 64.6401386,32.6583161 C64.2675705,32.8634129 63.8608318,32.9654129 63.4199227,32.9654129 C62.7111614,32.9654129 62.1390818,32.7394774 61.7025818,32.2887032 C61.2660818,31.8368323 61.0478318,31.1864452 61.0478318,30.3364452" id="Fill-17" fill="#FEFEFE"></path>
                        <mask id="mask-6" fill="white">
                            <use xlink:href="#path-5"></use>
                        </mask>
                        <g id="Clip-20"></g>
                        <polygon id="Fill-19" fill="#FEFEFE" mask="url(#mask-6)" points="67.1129773 32.8525548 67.9694432 32.8525548 67.9694432 25.9066839 67.1129773 25.9066839"></polygon>
                        <path d="M72.9534795,32.8523355 L72.9534795,32.1131097 C72.5599682,32.6823355 72.0242636,32.9664 71.3485705,32.9664 C71.0498545,32.9664 70.7720818,32.9093677 70.5130477,32.7953032 C70.2551159,32.6823355 70.0622182,32.5386581 69.9376614,32.3675613 C69.8109,32.194271 69.7227182,31.9836903 69.6720136,31.7336258 C69.6378432,31.5669161 69.6213091,31.3014968 69.6213091,30.9384645 L69.6213091,27.8203355 L70.477775,27.8203355 L70.477775,30.6116258 C70.477775,31.0569161 70.4954114,31.3574323 70.5306841,31.5109806 C70.5846955,31.7358194 70.6982295,31.9124 70.8723886,32.0396258 C71.04765,32.1679484 71.2636955,32.2326581 71.520525,32.2326581 C71.7773545,32.2326581 72.0187523,32.1657548 72.2436159,32.0352387 C72.4695818,31.9047226 72.6283091,31.7259484 72.7231045,31.5000129 C72.8156955,31.2740774 72.8630932,30.9461419 72.8630932,30.5162065 L72.8630932,27.8203355 L73.7195591,27.8203355 L73.7195591,32.8523355 L72.9534795,32.8523355 Z" id="Fill-21" fill="#FEFEFE" mask="url(#mask-6)"></path>
                        <path d="M77.2753807,32.0897484 L77.3988352,32.8432323 C77.1585398,32.8925871 76.941392,32.9189097 76.7506989,32.9189097 C76.439858,32.9189097 76.1984602,32.8695548 76.027608,32.7719419 C75.8567557,32.6732323 75.736608,32.5449097 75.6660625,32.3858774 C75.5966193,32.2257484 75.5602443,31.8901355 75.5602443,31.3790387 L75.5602443,28.4846516 L74.9319489,28.4846516 L74.9319489,27.8200065 L75.5602443,27.8200065 L75.5602443,26.5751677 L76.4134034,26.0629742 L76.4134034,27.8200065 L77.2753807,27.8200065 L77.2753807,28.4846516 L76.4134034,28.4846516 L76.4134034,31.4272968 C76.4134034,31.6696839 76.427733,31.8265226 76.4585966,31.8945226 C76.488358,31.9647161 76.5379602,32.0206516 76.6063011,32.0612323 C76.674642,32.1029097 76.771642,32.1226516 76.8984034,32.1226516 C76.9943011,32.1226516 77.118858,32.1127806 77.2753807,32.0897484" id="Fill-22" fill="#FEFEFE" mask="url(#mask-6)"></path>
                        <path d="M78.4597727,32.8525548 L79.3162386,32.8525548 L79.3162386,27.8205548 L78.4597727,27.8205548 L78.4597727,32.8525548 Z M78.4597727,26.8872 L79.3162386,26.8872 L79.3162386,25.9066839 L78.4597727,25.9066839 L78.4597727,26.8872 Z" id="Fill-23" fill="#FEFEFE" mask="url(#mask-6)"></path>
                        <path d="M81.5239807,30.3364452 C81.5239807,30.9813484 81.6661739,31.4628323 81.9483557,31.7841871 C82.2305375,32.1044452 82.5865716,32.265671 83.0153557,32.265671 C83.4397307,32.265671 83.7946625,32.1033484 84.075742,31.7808968 C84.3590261,31.4595419 84.500117,30.9681871 84.500117,30.3090258 C84.500117,29.6860581 84.3579239,29.2155419 84.0735375,28.8941871 C83.7902534,28.573929 83.4364239,28.4127032 83.0153557,28.4127032 C82.5865716,28.4127032 82.2305375,28.5728323 81.9483557,28.8919935 C81.6661739,29.2111548 81.5239807,29.6926387 81.5239807,30.3364452 M80.6432648,30.3364452 C80.6432648,29.4041871 80.9045034,28.7143161 81.4236739,28.2657355 C81.8590716,27.8928323 82.3892648,27.7074774 83.0153557,27.7074774 C83.7097875,27.7074774 84.277458,27.9345097 84.718367,28.3874774 C85.1603784,28.8404452 85.380833,29.4667032 85.380833,30.2662516 C85.380833,30.9122516 85.283833,31.4222516 85.0876284,31.7929613 C84.8936284,32.1647677 84.609242,32.4532194 84.2355716,32.6583161 C83.8630034,32.8634129 83.4562648,32.9654129 83.0153557,32.9654129 C82.3065943,32.9654129 81.7345148,32.7394774 81.2980148,32.2887032 C80.8615148,31.8368323 80.6432648,31.1864452 80.6432648,30.3364452" id="Fill-24" fill="#FEFEFE" mask="url(#mask-6)"></path>
                        <path d="M86.7264875,32.8523355 L86.7264875,27.8203355 L87.4980784,27.8203355 L87.4980784,28.5354323 C87.8695443,27.9837548 88.4052489,27.7073677 89.1073966,27.7073677 C89.4127261,27.7073677 89.6916011,27.7611097 89.9484307,27.8707871 C90.2030557,27.9804645 90.3948511,28.1230452 90.5216125,28.2996258 C90.6494761,28.4762065 90.737658,28.6856903 90.7894648,28.9291742 C90.8203284,29.0871097 90.8368625,29.3634968 90.8368625,29.7594323 L90.8368625,32.8523355 L89.9792943,32.8523355 L89.9792943,29.7923355 C89.9792943,29.4446581 89.9462261,29.1847226 89.8789875,29.012529 C89.8128511,28.8403355 89.6938057,28.7032387 89.5240557,28.6001419 C89.3543057,28.4970452 89.1547943,28.4454968 88.9266239,28.4454968 C88.5617716,28.4454968 88.2465216,28.5617548 87.9819761,28.7920774 C87.7163284,29.0224 87.5840557,29.4600129 87.5840557,30.1038194 L87.5840557,32.8523355 L86.7264875,32.8523355 Z" id="Fill-25" fill="#FEFEFE" mask="url(#mask-6)"></path>
                        <path d="M92.1484568,31.3507419 L92.9972068,31.2180323 C93.0435023,31.5558387 93.1768773,31.8146774 93.394025,31.9945484 C93.6111727,32.1744194 93.9154,32.2654516 94.3056045,32.2654516 C94.6991159,32.2654516 94.9912182,32.1853871 95.1819114,32.0252581 C95.3726045,31.8662258 95.4674,31.6797742 95.4674,31.4648065 C95.4674,31.2717742 95.3836273,31.1204194 95.2149795,31.0085484 C95.0981386,30.9339677 94.8060364,30.8374516 94.3386727,30.7200968 C93.7103773,30.5621613 93.2749795,30.4261613 93.0324795,30.311 C92.7888773,30.1947419 92.6047977,30.0357097 92.4802409,29.8317097 C92.3545818,29.6288065 92.2917523,29.4039677 92.2917523,29.1571935 C92.2917523,28.9323548 92.3435591,28.7250645 92.4471727,28.5342258 C92.5496841,28.3433871 92.6896727,28.1843548 92.8671386,28.0582258 C93.0005136,27.9595161 93.1823886,27.8772581 93.4127636,27.8092581 C93.6431386,27.7412581 93.8900477,27.7072581 94.1534909,27.7072581 C94.5503091,27.7072581 94.8986273,27.7631935 95.1995477,27.8772581 C95.4982636,27.9913226 95.7198205,28.144871 95.8631159,28.3400968 C96.0053091,28.5342258 96.1045136,28.7941613 96.158525,29.1188065 L95.3196955,29.232871 C95.2822182,28.9740323 95.1708886,28.771129 94.9890136,28.6263548 C94.8060364,28.4815806 94.5492068,28.4080968 94.2152182,28.4080968 C93.8217068,28.4080968 93.5406273,28.4728065 93.3719795,28.6022258 C93.2044341,28.7316452 93.1206614,28.8840968 93.1206614,29.0573871 C93.1206614,29.1681613 93.1548318,29.2679677 93.2253773,29.3568065 C93.2948205,29.4478387 93.4050477,29.5235161 93.5527523,29.5838387 C93.6398318,29.6145484 93.89115,29.6869355 94.3111159,29.801 C94.9173659,29.9622258 95.3406386,30.0938387 95.5787295,30.1969355 C95.819025,30.3000323 96.0075136,30.4491935 96.1441955,30.6444194 C96.279775,30.8407419 96.3492182,31.0842258 96.3492182,31.3737742 C96.3492182,31.6578387 96.2643432,31.9254516 96.0990023,32.1777097 C95.9325591,32.4277742 95.6911614,32.6219032 95.3770136,32.7600968 C95.0639682,32.8971935 94.7068318,32.9662903 94.3111159,32.9662903 C93.6530591,32.9662903 93.1526273,32.8302903 92.8087182,32.5593871 C92.4637068,32.2873871 92.2443545,31.8837742 92.1484568,31.3507419" id="Fill-26" fill="#FEFEFE" mask="url(#mask-6)"></path>
                        <path d="M19.1475795,23.6286839 L22.1027727,23.6286839 L22.1027727,12.5205548 L19.1475795,12.5205548 L19.1475795,23.6286839 Z M19.1475795,11.0135871 L22.1027727,11.0135871 L22.1027727,8.29468387 L19.1475795,8.29468387 L19.1475795,11.0135871 Z" id="Fill-27" fill="#FEFEFE" mask="url(#mask-6)"></path>
                        <path d="M36.0391375,23.6293419 L33.0839443,23.6293419 L33.0839443,17.9601161 C33.0839443,16.7602452 33.022217,15.9848258 32.8943534,15.6316645 C32.7686943,15.2806968 32.5647739,15.0065032 32.2803875,14.8112774 C31.9960011,14.6160516 31.6542966,14.5184387 31.2552739,14.5184387 C30.7438193,14.5184387 30.2841716,14.657729 29.8785352,14.9374065 C29.4717966,15.2159871 29.1929216,15.5856 29.0419102,16.0451484 C28.8920011,16.5057935 28.8159443,17.3568903 28.8159443,18.5984387 L28.8159443,23.6293419 L25.8629557,23.6293419 L25.8629557,12.5212129 L28.6065125,12.5212129 L28.6065125,14.1521161 C29.5809216,12.8974065 30.8066489,12.2700516 32.2858989,12.2700516 C32.937342,12.2700516 33.5336716,12.3863097 34.072683,12.6199226 C34.6127966,12.8535355 35.0206375,13.1518581 35.297308,13.5137935 C35.5739784,13.8768258 35.7668761,14.2881161 35.8760011,14.7487613 C35.9840239,15.2083097 36.0391375,15.867471 36.0391375,16.7262452 L36.0391375,23.6293419 Z" id="Fill-28" fill="#FEFEFE" mask="url(#mask-6)"></path>
                        <path d="M49.9435364,23.6293419 L46.9894455,23.6293419 L46.9894455,17.9601161 C46.9894455,16.7602452 46.9266159,15.9848258 46.7998545,15.6316645 C46.6741955,15.2806968 46.4691727,15.0065032 46.1858886,14.8112774 C45.9015023,14.6160516 45.5597977,14.5184387 45.1596727,14.5184387 C44.6482182,14.5184387 44.1896727,14.657729 43.7829341,14.9374065 C43.3761955,15.2159871 43.0984227,15.5856 42.9474114,16.0451484 C42.7975023,16.5057935 42.7214455,17.3568903 42.7214455,18.5984387 L42.7214455,23.6293419 L39.7673545,23.6293419 L39.7673545,12.5212129 L42.5109114,12.5212129 L42.5109114,14.1521161 C43.4853205,12.8974065 44.71215,12.2700516 46.1902977,12.2700516 C46.8428432,12.2700516 47.4380705,12.3863097 47.9781841,12.6199226 C48.5171955,12.8535355 48.9250364,13.1518581 49.2028091,13.5137935 C49.4794795,13.8768258 49.6723773,14.2881161 49.7815023,14.7487613 C49.889525,15.2083097 49.9435364,15.867471 49.9435364,16.7262452 L49.9435364,23.6293419 Z" id="Fill-29" fill="#FEFEFE" mask="url(#mask-6)"></path>
                        <path d="M59.8531886,18.2944129 C59.4751091,18.4205419 58.8754727,18.5697032 58.0553818,18.7440903 C57.2363932,18.9184774 56.7006886,19.0895742 56.4471659,19.2562839 C56.0624727,19.5282839 55.869575,19.8737677 55.869575,20.2927355 C55.869575,20.7040258 56.0227909,21.0593806 56.3325295,21.3588 C56.6400636,21.6593161 57.0324727,21.8095742 57.5097568,21.8095742 C58.0410523,21.8095742 58.5492,21.6351871 59.0342,21.2864129 C59.3913364,21.0209935 59.6261205,20.6974452 59.7385523,20.3135742 C59.8157114,20.0624129 59.8531886,19.5853161 59.8531886,18.8800903 L59.8531886,18.2944129 Z M55.9004386,15.9100258 L53.2197114,15.4285419 C53.5217341,14.3548 54.0409045,13.5596387 54.7761205,13.0430581 C55.5124386,12.5275742 56.6058932,12.2698323 58.0553818,12.2698323 C59.3725977,12.2698323 60.3547227,12.4244774 60.9995523,12.7348645 C61.6443818,13.0452516 62.0974159,13.4389935 62.3608591,13.9171871 C62.6243023,14.3942839 62.7554727,15.2717032 62.7554727,16.5483484 L62.7235068,19.9790581 C62.7235068,20.9551871 62.7698023,21.6757677 62.8645977,22.1386065 C62.9593932,22.6025419 63.1368591,23.0993806 63.3969955,23.6291226 L60.4737682,23.6291226 C60.3966091,23.4349935 60.3018136,23.1443484 60.1904841,22.7615742 C60.1408818,22.5871871 60.1056091,22.4720258 60.0846659,22.4160903 C59.579825,22.9041548 59.0408136,23.2704774 58.4654273,23.5139613 C57.8911432,23.7585419 57.2782795,23.8802839 56.6257341,23.8802839 C55.4760636,23.8802839 54.5710977,23.5709935 53.9086318,22.9491226 C53.2461659,22.3294452 52.9154841,21.5441548 52.9154841,20.5965419 C52.9154841,19.9680903 53.0664955,19.4087355 53.3674159,18.9173806 C53.6683364,18.4260258 54.0905068,18.0487355 54.6339273,17.7877032 C55.1773477,17.5255742 55.9610636,17.2974452 56.9828705,17.1022194 C58.3640182,16.8444774 59.3218932,16.6031871 59.8531886,16.3805419 L59.8531886,16.0877032 C59.8531886,15.5228645 59.7132,15.1192516 59.4332227,14.8790581 C59.1521432,14.6388645 58.6241545,14.5182194 57.84595,14.5182194 C57.3201659,14.5182194 56.9101205,14.6213161 56.6147114,14.8264129 C56.3215068,15.0326065 56.0834159,15.3934452 55.9004386,15.9100258 Z" id="Fill-30" fill="#FEFEFE" mask="url(#mask-6)"></path>
                        <path d="M76.1558023,15.8051742 L73.2435977,16.3283355 C73.1454955,15.7492387 72.9228364,15.3138194 72.5756205,15.0209806 C72.2284045,14.7281419 71.7786773,14.5811742 71.2253364,14.5811742 C70.4890182,14.5811742 69.9026091,14.834529 69.4650068,15.3401419 C69.0263023,15.8457548 68.80695,16.6913677 68.80695,17.8758839 C68.80695,19.1942065 69.0296091,20.1253677 69.473825,20.6693677 C69.9202455,21.2133677 70.5176773,21.4853677 71.2672227,21.4853677 C71.8271773,21.4853677 72.286825,21.3263355 72.6439614,21.0093677 C73.0022,20.6924 73.2535182,20.1462065 73.4012227,19.3718839 L76.3035068,19.8632387 C76.0014841,21.1892387 75.4227909,22.1894968 74.5685295,22.8651097 C73.7131659,23.5418194 72.5668023,23.8807226 71.1305409,23.8807226 C69.498075,23.8807226 68.1951886,23.368529 67.2240864,22.3430452 C66.2551886,21.3175613 65.7690864,19.8983355 65.7690864,18.0853677 C65.7690864,16.2515613 66.2562909,14.8235613 67.2295977,13.8013677 C68.2040068,12.780271 69.5212227,12.2691742 71.1823477,12.2691742 C72.5436545,12.2691742 73.6238818,12.5609161 74.4263364,13.1433032 C75.2287909,13.7256903 75.8052795,14.6129806 76.1558023,15.8051742" id="Fill-31" fill="#FEFEFE" mask="url(#mask-6)"></path>
                        <polygon id="Fill-32" fill="#FEFEFE" mask="url(#mask-6)" points="79.1486932 23.6286839 82.1027841 23.6286839 82.1027841 8.29468387 79.1486932 8.29468387"></polygon>
                        <path d="M92.5166159,17.1231677 C92.4956727,16.272071 92.2752182,15.626071 91.85415,15.1829742 C91.4341841,14.7398774 90.9227295,14.518329 90.3197864,14.518329 C89.6749568,14.518329 89.1414568,14.7519419 88.7225932,15.2191677 C88.301525,15.6863935 88.0942977,16.3214258 88.1020136,17.1231677 L92.5166159,17.1231677 Z M92.3490705,20.0932323 L95.2932409,20.5856839 C94.9140591,21.6594258 94.3166273,22.4765226 93.4998432,23.038071 C92.6830591,23.5996194 91.6623545,23.8803935 90.435525,23.8803935 C88.4944227,23.8803935 87.0570591,23.2486516 86.1256386,21.9873613 C85.3893205,20.9761355 85.0211614,19.7005871 85.0211614,18.1585226 C85.0211614,16.3181355 85.5050591,14.8758774 86.4728545,13.8328452 C87.4395477,12.7909097 88.6619682,12.2699419 90.1412182,12.2699419 C91.8023432,12.2699419 93.1129455,12.8150387 94.073025,13.906329 C95.0331045,14.9987161 95.49165,16.6702 95.4497636,18.9218774 L88.0491045,18.9218774 C88.0700477,19.7938129 88.3092409,20.4727161 88.7644795,20.9563935 C89.2197182,21.4422645 89.7862864,21.6835548 90.4674909,21.6835548 C90.9304455,21.6835548 91.3184455,21.5585226 91.6336955,21.3073613 C91.9489455,21.0562 92.1870364,20.6514903 92.3490705,20.0932323 Z" id="Fill-33" fill="#FEFEFE" mask="url(#mask-6)"></path>
                        <polygon id="Fill-34" fill="#CD2A1F" mask="url(#mask-6)" points="0 33.3537806 15.3061591 33.3537806 15.3061591 1.24023226 0 1.24023226"></polygon>
                        <path d="M13.1529795,14.2462194 C12.9181955,14.5884129 12.593025,14.8395742 12.1796727,14.9997032 C11.7663205,15.1598323 10.9462295,15.2398968 9.72050227,15.2398968 L8.01749091,15.2398968 L8.01749091,10.8889935 L9.52099091,10.8889935 C10.6420023,10.8889935 11.3882409,10.9240903 11.7597068,10.9931871 C12.2645477,11.0842194 12.6812068,11.3112516 13.0107864,11.6731871 C13.3403659,12.0362194 13.5046045,12.4957677 13.5046045,13.0540258 C13.5046045,13.5069935 13.3877636,13.9051226 13.1529795,14.2462194 Z M15.3057182,9.46757419 C14.8130023,9.01021935 14.2453318,8.69325161 13.5994,8.52434839 C13.0251159,8.37189677 11.7916727,8.29512258 9.89907045,8.29512258 L4.905775,8.29512258 L4.905775,23.6291226 L8.01749091,23.6291226 L8.01749091,17.8447355 L10.046775,17.8447355 C11.4554795,17.8447355 12.5312977,17.7712516 13.2731273,17.6253806 C13.8198545,17.506929 14.3577636,17.2645419 14.8868545,16.8982194 C15.0400705,16.7918323 15.1679341,16.6492516 15.3057182,16.520929 L15.3057182,9.46757419 Z" id="Fill-35" fill="#FEFEFE" mask="url(#mask-6)"></path>
                    </g>
                </g>
            </g>
        </g>
    </g>
</svg>